<svg xmlns="http://www.w3.org/2000/svg" width="256" height="256"><path fill-opacity=".016" d="M0 128.004v128.004l128.25-.254 128.25-.254.254-127.75L257.008 0H0v128.004m.485.496c0 70.4.119 99.053.265 63.672.146-35.38.146-92.98 0-128C.604 29.153.485 58.1.485 128.5" fill="#1976D2" fill-rule="evenodd"/><path fill-opacity=".398" d="M19.249 74.393C2.514 82.692.011 85.03.004 92.368c-.003 3.162.704 4.576 3.878 7.75 3.265 3.264 4.544 3.882 8.04 3.882 2.287 0 5.94-.909 8.118-2.02L24 99.959v39.053c0 42.384.139 43.593 5.514 47.82C31.5 188.395 33.656 189 37.235 189c4.313 0 5.411-.446 8.365-3.4l3.4-3.4V74.971l-3.251-3.547c-2.369-2.586-4.335-3.689-7.25-4.071-3.498-.457-5.908.424-19.25 7.04m87.794-6.254C94.306 70.25 83.475 78.33 77.575 90.123c-7.674 15.339-5.068 28.228 6.16 30.474 6.57 1.314 14.224-5.168 14.283-12.097.091-10.625 10.856-18.614 20.794-15.434 9.492 3.038 13.987 13.474 9.577 22.234-.886 1.76-13.44 15.125-27.897 29.7-14.457 14.575-26.6 27.552-26.984 28.837-1.141 3.82.365 8.882 3.607 12.124L80.154 189h35.458c31.254 0 35.757-.195 37.974-1.648 7.365-4.826 7.021-16.199-.626-20.716-2.275-1.345-5.847-1.636-20.049-1.636H115.63l16.172-16.361c13.634-13.792 16.685-17.442 19.435-23.25 3.039-6.417 3.263-7.609 3.263-17.389 0-9.314-.304-11.15-2.696-16.253-7.972-17.011-26.285-26.67-44.761-23.608m100.457.193c-8.94 2.948-15.501 7.998-19.541 15.042-3.382 5.895-3.624 8.423-1.281 13.36 1.182 2.491 2.97 4.107 6.049 5.47 6.194 2.739 9.566 1.712 15.85-4.829 5.499-5.722 7.578-6.381 12.351-3.912 3.219 1.664 4.086 3.352 4.04 7.869-.052 5.156-4.009 8.668-9.767 8.668-5.373 0-11.205 6.615-11.197 12.7.004 3.401 3.123 8.762 5.989 10.296 1.155.618 4.666 1.535 7.803 2.037 4.781.765 6.311 1.559 9.454 4.901 3.36 3.573 3.75 4.539 3.746 9.277-.006 9.167-5.709 15.112-14.496 15.112-8.177 0-12.998-4.597-14.5-13.823-1.076-6.611-3.101-9.846-7.46-11.914-4.41-2.093-7.355-1.996-11.236.37-5.439 3.317-6.628 6.111-6.092 14.317.882 13.494 9.994 26.655 22.52 32.524 5.22 2.446 6.86 2.703 17.268 2.703 11.171 0 11.679-.097 17.737-3.382 7.685-4.168 14.548-11.348 18.067-18.9 2.087-4.478 2.744-7.611 3.029-14.45.453-10.851-1.52-17.763-7.323-25.651l-4.133-5.617 2.562-4.971c3.61-7.007 4.1-18.722 1.114-26.676-4.557-12.14-16.53-20.772-29.794-21.479-3.914-.209-8.443.194-10.759.958" fill="#1976D2" fill-rule="evenodd"/><path fill-opacity=".643" d="M20.943 74.044C5.168 81.819 1.332 84.711.431 89.514c-1.27 6.77 5.037 14.473 11.859 14.482 1.534.002 4.554-.896 6.71-1.996 2.156-1.1 4.388-2 4.96-2 .703 0 1.04 13.317 1.04 41.1v41.1l3.4 3.4c2.844 2.844 4.112 3.394 7.75 3.365 5.233-.043 8.316-1.607 10.904-5.532 1.848-2.804 1.933-5.213 1.936-54.933.002-49.732-.082-52.139-1.94-55.186-2.137-3.504-4-4.745-8.607-5.733-2.511-.538-5.632.614-17.5 6.463m189.412-6.033C197.581 70.628 186 81.712 186 91.323c0 4.213.463 5.34 3.4 8.277 2.786 2.786 4.157 3.4 7.596 3.4 3.869 0 10.004-2.52 10.004-4.11 0-.373 1.306-2.076 2.901-3.784 5.833-6.245 15.554-2.631 15.554 5.783 0 5.308-2.696 8.044-9.09 9.225-6.262 1.157-9.549 3.632-11.141 8.389-2.523 7.541 2.494 14.638 11.192 15.83 9.834 1.348 14.952 6.549 15.035 15.277.053 5.669-1.73 9.016-6.836 12.828-3.82 2.852-12.382 2.854-16.292.003-3.599-2.624-7.323-9.872-7.323-14.253 0-2.52-.871-4.259-3.4-6.788-2.901-2.901-4.089-3.4-8.096-3.4-5.546 0-9.637 2.494-11.51 7.015-1.927 4.653-.568 14.315 3.052 21.703 10.492 21.407 36.933 28.815 57.243 16.037 5.934-3.734 10.81-9.586 14.434-17.325 2.456-5.244 2.777-7.087 2.777-15.93 0-8.682-.343-10.731-2.601-15.546-1.431-3.05-4.056-7.202-5.834-9.228l-3.234-3.682 2.835-5.772c3.782-7.703 4.049-20.086.594-27.604-6.611-14.389-22.17-22.676-36.905-19.657M102.5 69.402c-15.052 4.773-24.92 15.549-28.092 30.676-1.208 5.759-1.312 8.246-.464 11.098 2.642 8.893 12.851 11.793 19.626 5.574 2.964-2.721 3.668-4.192 4.324-9.046 1.217-8.999 6.385-14.53 14.423-15.436 5.947-.671 12.767 2.513 15.761 7.358 2.589 4.189 2.872 11.67.604 15.951-.852 1.607-13.289 14.623-27.637 28.923-28.4 28.305-29.569 29.916-26.695 36.796.774 1.852 2.648 4.344 4.164 5.536 2.707 2.13 3.372 2.168 37.544 2.168h34.789l3.01-2.533c6.005-5.053 6.24-13.205.536-18.57-2.464-2.317-3.144-2.407-20.471-2.71-9.857-.172-17.922-.617-17.922-.989s7.175-7.881 15.944-16.687c11.206-11.253 16.723-17.579 18.565-21.286 11.147-22.433-.605-49.667-24.441-56.637-6.422-1.878-17.945-1.969-23.568-.186" fill="#1976D2" fill-rule="evenodd"/><path fill-opacity=".963" d="M20.887 74.086C6.004 81.397 2.515 83.909 1.042 88.372c-1.421 4.306.875 10.689 4.762 13.235 3.649 2.391 10.172 2.195 14.638-.44C22.462 99.975 24.314 99 24.557 99c.244 0 .443 18.247.443 40.55 0 45.109-.046 44.777 6.588 47.925 6.966 3.306 14.318 0 16.487-7.415.681-2.326.935-21.177.734-54.388L48.5 74.845l-3.735-3.423c-5.558-5.092-8.837-4.726-23.878 2.664m84.439-5.041c-11.441 2.262-22.967 11.56-28.025 22.608-3.355 7.329-4.241 17.628-1.905 22.145 3.066 5.93 10.399 7.844 16.29 4.252 3.904-2.381 4.86-4.132 5.757-10.55 1.379-9.86 7.646-15.504 17.208-15.496 8.019.006 14.393 5.471 15.943 13.668 1.393 7.369.628 8.389-27.584 36.828-14.733 14.85-27.286 27.983-27.898 29.184-1.557 3.058-1.384 7.889.405 11.349C78.515 188.831 79.663 189 116 189c35.504 0 36.913-.182 40.439-5.217 2.003-2.859 2-9.033-.005-12.911-2.585-4.999-6.316-5.872-25.089-5.872h-16.719l16.679-16.862c18.097-18.296 20.763-22.275 22.536-33.638 4.407-28.25-19.979-51.098-48.515-45.455m100.078.782C195.548 73.234 186 83.527 186 90.745c0 6.757 5.167 12.255 11.516 12.255 3.802 0 6.474-1.627 10.991-6.691 3.375-3.784 4.618-4.51 7.875-4.603 3.167-.09 4.39.474 6.743 3.108 1.77 1.98 2.875 4.335 2.875 6.125 0 3.824-4.405 9.061-7.621 9.061-6.733 0-13.379 5.747-13.379 11.57 0 7.56 3.545 11.182 12.298 12.566 9.401 1.486 15.148 8.021 14.472 16.456-1.513 18.865-28.073 19.145-30.481.321-.764-5.973-2.744-9.58-6.256-11.396-4.465-2.309-9.401-1.92-12.89 1.016-4.371 3.678-5.504 7.963-4.121 15.588 4.55 25.094 29.415 38.967 53.478 29.838 4.503-1.708 7.645-3.921 12.591-8.868 8.685-8.684 11.248-14.924 11.336-27.591.057-8.105-.249-9.647-3.07-15.5-1.723-3.575-4.432-8.012-6.02-9.861l-2.886-3.361 3.011-6.076c6.211-12.53 2.979-28.625-7.67-38.199-8.944-8.041-21.928-10.638-33.388-6.676" fill="#1976D2" fill-rule="evenodd"/></svg>